<svg id="Layer_1" data-name="Layer 1" xmlns="http://www.w3.org/2000/svg" viewBox="0 0 98.08 121.43"><defs><style>.cls-1{fill:#fff;}</style></defs><path class="cls-1" d="M320,175.09H268.2a16.43,16.43,0,0,1-16.42-16.42V87.09A4.23,4.23,0,0,1,256,82.85h76.15a4.24,4.24,0,0,1,4.24,4.24v71.58A16.44,16.44,0,0,1,320,175.09ZM260.25,91.33v67.34a8,8,0,0,0,7.95,8H320a8,8,0,0,0,7.94-8V91.33Z" transform="translate(-245.05 -53.66)"/><path class="cls-1" d="M338.89,91.33h-89.6a4.24,4.24,0,0,1-4.24-4.24v-6a14.53,14.53,0,0,1,14.52-14.52h69a14.54,14.54,0,0,1,14.52,14.52v6A4.24,4.24,0,0,1,338.89,91.33Zm-85.37-8.48h81.13V81.13a6,6,0,0,0-6-6h-69a6.06,6.06,0,0,0-6,6Z" transform="translate(-245.05 -53.66)"/><path class="cls-1" d="M309.57,75.08h-31a4.23,4.23,0,0,1-4.23-4.23V66.91a13.27,13.27,0,0,1,13.25-13.25h12.94a13.27,13.27,0,0,1,13.25,13.25v3.94A4.23,4.23,0,0,1,309.57,75.08Zm-26.72-8.47h22.47a4.77,4.77,0,0,0-4.76-4.47H287.62A4.79,4.79,0,0,0,282.85,66.61Z" transform="translate(-245.05 -53.66)"/><path class="cls-1" d="M276.79,153.46a4.23,4.23,0,0,1-4.24-4.23V110.11a4.24,4.24,0,0,1,8.47,0v39.12A4.23,4.23,0,0,1,276.79,153.46Z" transform="translate(-245.05 -53.66)"/><path class="cls-1" d="M294.09,153.46a4.23,4.23,0,0,1-4.24-4.23V110.11a4.24,4.24,0,0,1,8.48,0v39.12A4.23,4.23,0,0,1,294.09,153.46Z" transform="translate(-245.05 -53.66)"/><path class="cls-1" d="M311.39,153.46a4.23,4.23,0,0,1-4.24-4.23V110.11a4.24,4.24,0,0,1,8.48,0v39.12A4.23,4.23,0,0,1,311.39,153.46Z" transform="translate(-245.05 -53.66)"/></svg>